<?xml version="1.0" encoding="utf-8"?>
<!-- Generator: Adobe Illustrator 24.0.3, SVG Export Plug-In . SVG Version: 6.00 Build 0)  -->
<svg version="1.1" id="Layer_1" xmlns="http://www.w3.org/2000/svg" xmlns:xlink="http://www.w3.org/1999/xlink" x="0px" y="0px"
	 width="374px" height="360px" viewBox="0 0 374 360" style="enable-background:new 0 0 374 360;" xml:space="preserve">
<style type="text/css">
	.st0{fill:#242424;}
	.st1{fill:#FFFFFF;enable-background:new    ;}
</style>
<ellipse class="st0" cx="186" cy="180.76" rx="183" ry="177.74"/>
<path class="st1" d="M201.63,46.88h54.56c0,0-3.83,2.3-6.18,4.38c-1.96,1.73-5.54,3.78-10.12,8.85c-5.62,6.2-7.05,8.83-8.51,12.15
	c-3.12,7.07-2.76,13.12-2.76,13.12v6.97v10v10.31v10v10v10.31v10v10v10.31v10v10v10.31v10c0,0,0.28,7.73,0.3,8.18
	c0.26,4.3,1.39,11.22,1.52,12.12c0.4,2.78,1.09,6.25,1.54,7.96c0.79,3.04,2.31,7.53,3.01,9.32c0.27,0.7,1.21,2.73,1.21,2.73
	s5,9.68,5.46,10.31c2.53,3.45,5.76,7.58,5.76,7.58l2.12,2.43l8.18,7.88l2.42,2.12l11.82,8.49l-3,0.89c0,0-6.12-0.48-12.71-2.25
	c-5.33-1.43-10.99-4.01-13.81-5.53c-2-1.08-0.98-0.65-4.66-2.67c-5.79-3.19-14.35-12.08-15.57-13.26
	c-5.21-5.04-10.25-14.53-10.25-14.53s-6.26-10.41-8.33-21.87c-0.31-1.72-1.48-9.59-1.7-12.62c-0.12-1.59-0.24-3.41-0.29-7.28
	c-0.03-2.47,0-3.92,0-3.92V46.88z"/>
<path class="st1" d="M177.22,75.53h-54.56c0,0,3.83,2.3,6.18,4.38c1.96,1.73,5.54,3.78,10.12,8.85c5.62,6.2,7.05,8.83,8.51,12.15
	c3.12,7.07,2.76,13.12,2.76,13.12v6.97v10v10.31v10v10v10.31v10v10v10.31v10v10v10.31v10c0,0-0.28,7.73-0.3,8.18
	c-0.26,4.3-1.39,11.22-1.52,12.12c-0.4,2.78-1.09,6.25-1.54,7.96c-0.79,3.04-2.31,7.53-3.01,9.32c-0.27,0.7-1.21,2.73-1.21,2.73
	s-5,9.68-5.46,10.31c-2.53,3.45-5.76,7.58-5.76,7.58l-2.12,2.43l-8.18,7.88l-2.42,2.12l-11.82,8.49l3,0.89c0,0,6.12-0.48,12.71-2.25
	c5.33-1.43,10.99-4.01,13.81-5.53c2-1.08,0.98-0.65,4.66-2.67c5.79-3.19,14.35-12.08,15.57-13.26c5.21-5.04,10.25-14.53,10.25-14.53
	s6.26-10.41,8.33-21.87c0.31-1.72,1.48-9.59,1.71-12.62c0.12-1.59,0.24-3.41,0.29-7.28c0.03-2.47,0-3.92,0-3.92V75.53z"/>
</svg>
